<?xml version="1.0" standalone="no"?>
<!DOCTYPE svg PUBLIC "-//W3C//DTD SVG 20010904//EN"
 "http://www.w3.org/TR/2001/REC-SVG-20010904/DTD/svg10.dtd">
<svg version="1.0" xmlns="http://www.w3.org/2000/svg"
 width="64.000000pt" height="64.000000pt" viewBox="0 0 64.000000 64.000000"
 preserveAspectRatio="xMidYMid meet">
<metadata>
Created by potrace 1.16, written by Peter Selinger 2001-2019
</metadata>
<g transform="translate(0.000000,64.000000) scale(0.100000,-0.100000)"
fill="#000000" stroke="none">
<path d="M0 411 c0 -20 32 -168 42 -193 5 -15 32 -41 59 -59 47 -30 55 -43 61
-99 3 -23 7 -25 58 -25 l55 0 3 65 c3 71 -17 125 -53 144 -54 29 -74 49 -80
77 -4 18 -15 33 -25 36 -10 3 -21 11 -24 19 -3 8 -12 14 -20 14 -7 0 -16 7
-20 15 -6 16 -56 21 -56 6z m61 -75 c16 -53 60 -116 81 -116 16 0 7 25 -19 54
l-28 30 38 -32 c20 -17 51 -39 67 -47 37 -19 46 -36 55 -104 8 -59 1 -71 -47
-71 -22 0 -28 5 -28 23 0 45 -13 66 -60 98 -59 40 -65 52 -84 152 -17 94 -1
101 25 13z"/>
<path d="M584 405 c-4 -8 -12 -15 -20 -15 -7 0 -17 -6 -21 -13 -4 -8 -15 -16
-25 -20 -9 -3 -19 -19 -23 -36 -6 -28 -27 -48 -80 -77 -36 -19 -56 -73 -53
-144 l3 -65 34 -3 c58 -6 81 5 81 37 0 45 8 58 60 91 26 17 53 43 58 58 10 25
42 173 42 193 0 15 -50 10 -56 -6z m11 -90 c-19 -97 -20 -99 -81 -139 -48 -32
-54 -40 -54 -71 0 -39 -27 -61 -61 -50 -19 6 -20 12 -14 63 9 70 18 88 55 107
16 8 47 30 67 47 l38 32 -27 -30 c-27 -29 -36 -54 -21 -54 15 0 83 75 83 91 0
19 21 82 25 77 2 -2 -2 -35 -10 -73z"/>
</g>
</svg>
