<?xml version="1.0" standalone="no"?>
<!DOCTYPE svg PUBLIC "-//W3C//DTD SVG 20010904//EN"
 "http://www.w3.org/TR/2001/REC-SVG-20010904/DTD/svg10.dtd">
<svg version="1.0" xmlns="http://www.w3.org/2000/svg"
 width="48.000000pt" height="48.000000pt" viewBox="0 0 48.000000 48.000000"
 preserveAspectRatio="xMidYMid meet">
<metadata>
Created by potrace 1.16, written by Peter Selinger 2001-2019
</metadata>
<g transform="translate(0.000000,48.000000) scale(0.100000,-0.100000)"
fill="#000000" stroke="none">
<path d="M70 435 c0 -77 44 -135 101 -135 21 0 29 -7 38 -31 21 -62 17 -69
-44 -69 -48 0 -55 -3 -55 -19 0 -32 31 -155 42 -168 14 -18 162 -18 176 0 11
13 42 136 42 168 0 16 -7 19 -50 19 -27 0 -50 -4 -50 -10 0 -5 16 -10 35 -10
19 0 35 -3 35 -7 -2 -37 -33 -130 -47 -140 -22 -17 -84 -17 -106 0 -14 10 -45
103 -47 140 0 4 25 7 55 7 54 0 56 1 62 30 3 17 23 50 45 75 41 46 44 70 8 47
-25 -15 -26 -1 -2 21 24 22 62 22 62 1 0 -9 -14 -29 -30 -44 -31 -29 -26 -47
10 -35 25 8 50 55 50 95 0 29 -2 30 -44 30 -61 0 -96 -29 -96 -79 0 -21 -3
-41 -7 -44 -3 -4 -21 19 -38 51 -18 31 -39 58 -48 60 -20 4 -23 -18 -5 -36 6
-6 8 -15 4 -19 -14 -14 -66 55 -66 87 0 17 5 30 13 30 23 0 77 -40 89 -65 11
-25 38 -35 38 -15 0 49 -78 110 -140 110 -29 0 -30 -1 -30 -45z"/>
</g>
</svg>
